<svg width="128" height="128" viewBox="0 0 128 128" fill="none" xmlns="http://www.w3.org/2000/svg">
<g clip-path="url(#clip0_8638_3156)">
<rect width="128" height="128" rx="32" fill="white"/>
<rect width="128" height="128" rx="32" fill="url(#paint0_linear_8638_3156)"/>
<path fill-rule="evenodd" clip-rule="evenodd" d="M64 8.15541C33.1579 8.15541 8.15535 33.1579 8.15535 64.0001C8.15535 94.8422 33.1579 119.845 64 119.845C94.8422 119.845 119.845 94.8422 119.845 64.0001C119.845 33.1579 94.8422 8.15541 64 8.15541ZM7.84467 64.0001C7.84467 32.9863 32.9863 7.84473 64 7.84473C95.0137 7.84473 120.155 32.9863 120.155 64.0001C120.155 95.0138 95.0137 120.155 64 120.155C32.9863 120.155 7.84467 95.0138 7.84467 64.0001Z" fill="#D0D5DD"/>
<path fill-rule="evenodd" clip-rule="evenodd" d="M64.0001 48.3117C55.3351 48.3117 48.3107 55.336 48.3107 64.001C48.3107 72.6659 55.3351 79.6903 64.0001 79.6903C72.665 79.6903 79.6894 72.6659 79.6894 64.001C79.6894 55.336 72.665 48.3117 64.0001 48.3117ZM48.0001 64.001C48.0001 55.1644 55.1635 48.001 64.0001 48.001C72.8366 48.001 80.0001 55.1644 80.0001 64.001C80.0001 72.8375 72.8366 80.001 64.0001 80.001C55.1635 80.001 48.0001 72.8375 48.0001 64.001Z" fill="#D0D5DD"/>
<path fill-rule="evenodd" clip-rule="evenodd" d="M64 53.2804C58.0804 53.2804 53.2816 58.0792 53.2816 63.9989C53.2816 69.9185 58.0804 74.7173 64 74.7173C69.9196 74.7173 74.7185 69.9185 74.7185 63.9989C74.7185 58.0792 69.9196 53.2804 64 53.2804ZM52.9709 63.9989C52.9709 57.9076 57.9088 52.9697 64 52.9697C70.0912 52.9697 75.0291 57.9076 75.0291 63.9989C75.0291 70.0901 70.0912 75.028 64 75.028C57.9088 75.028 52.9709 70.0901 52.9709 63.9989Z" fill="#D0D5DD"/>
<path d="M63.8446 0H64.1553V128H63.8446V0Z" fill="#D0D5DD"/>
<path d="M128 63.8438L128 64.1544L-1.35802e-08 64.1544L0 63.8437L128 63.8438Z" fill="#D0D5DD"/>
<path d="M106.408 0H106.719V128H106.408V0Z" fill="#D0D5DD"/>
<path d="M42.5631 0H42.8738V128H42.5631V0Z" fill="#D0D5DD"/>
<path d="M85.1262 0H85.4369V128H85.1262V0Z" fill="#D0D5DD"/>
<path d="M21.2815 0H21.5922V128H21.2815V0Z" fill="#D0D5DD"/>
<path d="M128 106.406L128 106.717L-1.35802e-08 106.717L0 106.406L128 106.406Z" fill="#D0D5DD"/>
<path d="M128 42.5625L128 42.8732L-1.35802e-08 42.8732L0 42.5625L128 42.5625Z" fill="#D0D5DD"/>
<path d="M128 85.125L128 85.4357L-1.35802e-08 85.4357L0 85.125L128 85.125Z" fill="#D0D5DD"/>
<path d="M128 21.2812L128 21.5919L-1.35802e-08 21.5919L0 21.2812L128 21.2812Z" fill="#D0D5DD"/>
<g filter="url(#filter0_dd_8638_3156)">
<circle cx="64" cy="64" r="32" fill="url(#paint1_linear_8638_3156)"/>
</g>
<g filter="url(#filter1_b_8638_3156)">
<path d="M0 64H128V76.8C128 94.7217 128 103.683 124.512 110.528C121.444 116.549 116.549 121.444 110.528 124.512C103.683 128 94.7217 128 76.8 128H51.2C33.2783 128 24.3175 128 17.4723 124.512C11.4511 121.444 6.55574 116.549 3.48779 110.528C0 103.683 0 94.7217 0 76.8V64Z" fill="white" fill-opacity="0.2"/>
</g>
</g>
<rect x="0.6" y="0.6" width="126.8" height="126.8" rx="31.4" stroke="#D0D5DD" stroke-width="1.2"/>
<defs>
<filter id="filter0_dd_8638_3156" x="20" y="24" width="88" height="88" filterUnits="userSpaceOnUse" color-interpolation-filters="sRGB">
<feFlood flood-opacity="0" result="BackgroundImageFix"/>
<feColorMatrix in="SourceAlpha" type="matrix" values="0 0 0 0 0 0 0 0 0 0 0 0 0 0 0 0 0 0 127 0" result="hardAlpha"/>
<feOffset dy="4"/>
<feGaussianBlur stdDeviation="4"/>
<feColorMatrix type="matrix" values="0 0 0 0 0.0627451 0 0 0 0 0.0941176 0 0 0 0 0.156863 0 0 0 0.06 0"/>
<feBlend mode="normal" in2="BackgroundImageFix" result="effect1_dropShadow_8638_3156"/>
<feColorMatrix in="SourceAlpha" type="matrix" values="0 0 0 0 0 0 0 0 0 0 0 0 0 0 0 0 0 0 127 0" result="hardAlpha"/>
<feOffset dy="4"/>
<feGaussianBlur stdDeviation="6"/>
<feColorMatrix type="matrix" values="0 0 0 0 0.0627451 0 0 0 0 0.0941176 0 0 0 0 0.156863 0 0 0 0.1 0"/>
<feBlend mode="normal" in2="effect1_dropShadow_8638_3156" result="effect2_dropShadow_8638_3156"/>
<feBlend mode="normal" in="SourceGraphic" in2="effect2_dropShadow_8638_3156" result="shape"/>
</filter>
<filter id="filter1_b_8638_3156" x="-20" y="44" width="168" height="104" filterUnits="userSpaceOnUse" color-interpolation-filters="sRGB">
<feFlood flood-opacity="0" result="BackgroundImageFix"/>
<feGaussianBlur in="BackgroundImageFix" stdDeviation="10"/>
<feComposite in2="SourceAlpha" operator="in" result="effect1_backgroundBlur_8638_3156"/>
<feBlend mode="normal" in="SourceGraphic" in2="effect1_backgroundBlur_8638_3156" result="shape"/>
</filter>
<linearGradient id="paint0_linear_8638_3156" x1="64" y1="0" x2="64" y2="128" gradientUnits="userSpaceOnUse">
<stop stop-color="white"/>
<stop offset="1" stop-color="#D0D5DD"/>
</linearGradient>
<linearGradient id="paint1_linear_8638_3156" x1="48" y1="96" x2="80" y2="32" gradientUnits="userSpaceOnUse">
<stop stop-color="#53389E"/>
<stop offset="1" stop-color="#6941C6"/>
</linearGradient>
<clipPath id="clip0_8638_3156">
<rect width="128" height="128" rx="32" fill="white"/>
</clipPath>
</defs>
</svg>
